{
  "accessors": [
    {
      "bufferView": 1,
      "componentType": 5126,
      "count": 278,
      "max": [
        0.92401999235153198,
        0.48025000095367432,
        1.5966199636459351
      ],
      "min": [
        -0.92401999235153198,
        -1.3675099611282349,
        -0.73413002490997314
      ],
      "type": "VEC3"
    },
    {
      "bufferView": 1,
      "byteOffset": 3336,
      "componentType": 5126,
      "count": 278,
      "max": [
        1,
        1,
        0.93068474531173706
      ],
      "min": [
        -1,
        -0.7071068286895752,
        -1
      ],
      "type": "VEC3"
    },
    {
      "bufferView": 0,
      "componentType": 5125,
      "count": 660,
      "max": [
        277
      ],
      "min": [
        0
      ],
      "type": "SCALAR"
    },
    {
      "bufferView": 1,
      "byteOffset": 6672,
      "componentType": 5126,
      "count": 597,
      "max": [
        2.8371999263763428,
        0.71504002809524536,
        0.54539000988006592
      ],
      "min": [
        -2.8371999263763428,
        -0.5711899995803833,
        -0.89125001430511475
      ],
      "type": "VEC3"
    },
    {
      "bufferView": 1,
      "byteOffset": 13836,
      "componentType": 5126,
      "count": 597,
      "max": [
        1,
        1,
        0.99619001150131226
      ],
      "min": [
        -1,
        -0.99978584051132202,
        -1
      ],
      "type": "VEC3"
    },
    {
      "bufferView": 0,
      "byteOffset": 2640,
      "componentType": 5125,
      "count": 1038,
      "max": [
        596
      ],
      "min": [
        0
      ],
      "type": "SCALAR"
    },
    {
      "bufferView": 1,
      "byteOffset": 21000,
      "componentType": 5126,
      "count": 44,
      "max": [
        0.71000999212265015,
        0.25918999314308167,
        1.5296399593353271
      ],
      "min": [
        -0.71000999212265015,
        -0.44879999756813049,
        1.1469999551773071
      ],
      "type": "VEC3"
    },
    {
      "bufferView": 1,
      "byteOffset": 21528,
      "componentType": 5126,
      "count": 44,
      "max": [
        0.45650190114974976,
        0.6127200722694397,
        0.80590087175369263
      ],
      "min": [
        -0.45650190114974976,
        0.45089799165725708,
        0.76368314027786255
      ],
      "type": "VEC3"
    },
    {
      "bufferView": 0,
      "byteOffset": 6792,
      "componentType": 5125,
      "count": 96,
      "max": [
        43
      ],
      "min": [
        0
      ],
      "type": "SCALAR"
    },
    {
      "bufferView": 1,
      "byteOffset": 22056,
      "componentType": 5126,
      "count": 231,
      "max": [
        0.88072997331619263,
        0.43672999739646912,
        1.6447600126266479
      ],
      "min": [
        -0.88072997331619263,
        -1.3239799737930298,
        -0.75291001796722412
      ],
      "type": "VEC3"
    },
    {
      "bufferView": 1,
      "byteOffset": 24828,
      "componentType": 5126,
      "count": 231,
      "max": [
        1,
        1,
        1
      ],
      "min": [
        -1,
        -1,
        -1
      ],
      "type": "VEC3"
    },
    {
      "bufferView": 0,
      "byteOffset": 7176,
      "componentType": 5125,
      "count": 459,
      "max": [
        230
      ],
      "min": [
        0
      ],
      "type": "SCALAR"
    },
    {
      "bufferView": 1,
      "byteOffset": 27600,
      "componentType": 5126,
      "count": 440,
      "max": [
        0.92401999235153198,
        0.43696999549865723,
        1.5966199636459351
      ],
      "min": [
        -0.92401999235153198,
        -1.3675099611282349,
        -0.73413002490997314
      ],
      "type": "VEC3"
    },
    {
      "bufferView": 1,
      "byteOffset": 32880,
      "componentType": 5126,
      "count": 440,
      "max": [
        1,
        1,
        0.97409731149673462
      ],
      "min": [
        -1,
        -1,
        -1
      ],
      "type": "VEC3"
    },
    {
      "bufferView": 0,
      "byteOffset": 9012,
      "componentType": 5125,
      "count": 840,
      "max": [
        439
      ],
      "min": [
        0
      ],
      "type": "SCALAR"
    },
    {
      "bufferView": 1,
      "byteOffset": 38160,
      "componentType": 5126,
      "count": 395,
      "max": [
        0.73098999261856079,
        0.28723001480102539,
        -0.43053001165390015
      ],
      "min": [
        -0.73098999261856079,
        -1.1744899749755859,
        -0.87946999073028564
      ],
      "type": "VEC3"
    },
    {
      "bufferView": 1,
      "byteOffset": 42900,
      "componentType": 5126,
      "count": 395,
      "max": [
        1,
        1,
        0
      ],
      "min": [
        -1,
        -1,
        -1
      ],
      "type": "VEC3"
    },
    {
      "bufferView": 0,
      "byteOffset": 12372,
      "componentType": 5125,
      "count": 1047,
      "max": [
        394
      ],
      "min": [
        0
      ],
      "type": "SCALAR"
    }
  ],
  "asset": {
    "extras": {
      "author": "Vector (https://sketchfab.com/Vector_359)",
      "license": "CC-BY-4.0 (http://creativecommons.org/licenses/by/4.0/)",
      "source": "https://sketchfab.com/models/3bd694c5b4b44e42b6e081dee73bdd19",
      "title": "Spaceship"
    },
    "generator": "Sketchfab-3.19.8",
    "version": "2.0"
  },
  "bufferViews": [
    {
      "buffer": 0,
      "byteLength": 16560,
      "byteOffset": 0,
      "name": "floatBufferViews",
      "target": 34963
    },
    {
      "buffer": 0,
      "byteLength": 47640,
      "byteOffset": 16560,
      "byteStride": 12,
      "name": "floatBufferViews",
      "target": 34962
    }
  ],
  "buffers": [
    {
      "byteLength": 64200,
      "uri": "scene.bin"
    }
  ],
  "materials": [
    {
      "doubleSided": true,
      "emissiveFactor": [
        0,
        0,
        0
      ],
      "name": "Default_Material",
      "pbrMetallicRoughness": {
        "baseColorFactor": [
          1,
          1,
          1,
          1
        ],
        "metallicFactor": 0,
        "roughnessFactor": 0.59999999999999998
      }
    },
    {
      "doubleSided": true,
      "emissiveFactor": [
        0,
        0,
        0
      ],
      "name": "Wings",
      "pbrMetallicRoughness": {
        "baseColorFactor": [
          1,
          1,
          1,
          1
        ],
        "metallicFactor": 0,
        "roughnessFactor": 0.59999999999999998
      }
    },
    {
      "doubleSided": true,
      "emissiveFactor": [
        0,
        0,
        0
      ],
      "name": "Cockpit",
      "pbrMetallicRoughness": {
        "baseColorFactor": [
          1,
          1,
          1,
          1
        ],
        "metallicFactor": 0,
        "roughnessFactor": 0.59999999999999998
      }
    },
    {
      "doubleSided": true,
      "emissiveFactor": [
        0,
        0,
        0
      ],
      "name": "Material",
      "pbrMetallicRoughness": {
        "baseColorFactor": [
          1,
          1,
          1,
          1
        ],
        "metallicFactor": 0,
        "roughnessFactor": 0.59999999999999998
      }
    },
    {
      "doubleSided": true,
      "emissiveFactor": [
        0,
        0,
        0
      ],
      "name": "Material.001",
      "pbrMetallicRoughness": {
        "baseColorFactor": [
          1,
          1,
          1,
          1
        ],
        "metallicFactor": 0,
        "roughnessFactor": 0.59999999999999998
      }
    },
    {
      "doubleSided": true,
      "emissiveFactor": [
        0,
        0,
        0
      ],
      "name": "material",
      "pbrMetallicRoughness": {
        "baseColorFactor": [
          1,
          1,
          1,
          1
        ],
        "metallicFactor": 0,
        "roughnessFactor": 0.59999999999999998
      }
    }
  ],
  "meshes": [
    {
      "name": "Cylinder_0",
      "primitives": [
        {
          "attributes": {
            "NORMAL": 1,
            "POSITION": 0
          },
          "indices": 2,
          "material": 0,
          "mode": 4
        }
      ]
    },
    {
      "name": "Cylinder_1",
      "primitives": [
        {
          "attributes": {
            "NORMAL": 4,
            "POSITION": 3
          },
          "indices": 5,
          "material": 1,
          "mode": 4
        }
      ]
    },
    {
      "name": "Cylinder_2",
      "primitives": [
        {
          "attributes": {
            "NORMAL": 7,
            "POSITION": 6
          },
          "indices": 8,
          "material": 2,
          "mode": 4
        }
      ]
    },
    {
      "name": "Cylinder_3",
      "primitives": [
        {
          "attributes": {
            "NORMAL": 10,
            "POSITION": 9
          },
          "indices": 11,
          "material": 3,
          "mode": 4
        }
      ]
    },
    {
      "name": "Cylinder_4",
      "primitives": [
        {
          "attributes": {
            "NORMAL": 13,
            "POSITION": 12
          },
          "indices": 14,
          "material": 4,
          "mode": 4
        }
      ]
    },
    {
      "name": "Cylinder_5",
      "primitives": [
        {
          "attributes": {
            "NORMAL": 16,
            "POSITION": 15
          },
          "indices": 17,
          "material": 5,
          "mode": 4
        }
      ]
    }
  ],
  "nodes": [
    {
      "children": [
        1
      ],
      "name": "RootNode (gltf orientation matrix)",
      "rotation": [
        -0.70710678118654746,
        -0,
        -0,
        0.70710678118654757
      ]
    },
    {
      "children": [
        2
      ],
      "name": "RootNode (model correction matrix)"
    },
    {
      "children": [
        3,
        10,
        12
      ],
      "name": "Root"
    },
    {
      "children": [
        4,
        5,
        6,
        7,
        8,
        9
      ],
      "matrix": [
        0.85183000000000009,
        0,
        0,
        0,
        0,
        -0,
        0.85183000000000009,
        0,
        0,
        -2.0997499999999998,
        -0,
        0,
        0,
        0,
        0.50207000000000002,
        1
      ],
      "name": "Cylinder"
    },
    {
      "mesh": 0,
      "name": "Cylinder_0"
    },
    {
      "mesh": 1,
      "name": "Cylinder_1"
    },
    {
      "mesh": 2,
      "name": "Cylinder_2"
    },
    {
      "mesh": 3,
      "name": "Cylinder_3"
    },
    {
      "mesh": 4,
      "name": "Cylinder_4"
    },
    {
      "mesh": 5,
      "name": "Cylinder_5"
    },
    {
      "children": [
        11
      ],
      "matrix": [
        1,
        0,
        0,
        0,
        0,
        1,
        0,
        0,
        0,
        0,
        1,
        0,
        -0,
        0.90787000000000007,
        0.10574000000000001,
        1
      ],
      "name": "Point.003"
    },
    {
      "name": "Point.003"
    },
    {
      "children": [
        13
      ],
      "matrix": [
        0.93937000000000004,
        -0.27152999999999999,
        -0.20940000000000003,
        0,
        0.34281000000000011,
        0.72957000000000005,
        0.59179000000000015,
        0,
        -0.0079100000000000021,
        -0.62769000000000019,
        0.77842,
        0,
        -0,
        -7.1978999999999989,
        2.4706399999999995,
        1
      ],
      "name": "Sun"
    },
    {
      "name": "Sun"
    }
  ],
  "scene": 0,
  "scenes": [
    {
      "name": "OSG_Scene",
      "nodes": [
        0
      ]
    }
  ]
}

